# MagicaVoxel @ Ephtracy

# group
o 

# material
mtllib tokii_strawberry.mtl
usemtl palette

# normals
vn -1 0 0
vn 1 0 0
vn 0 0 1
vn 0 0 -1
vn 0 -1 0
vn 0 1 0

# texcoords
vt 0.00195312 0.5
vt 0.00976562 0.5
vt 0.0292969 0.5
vt 0.0566406 0.5
vt 0.134766 0.5
vt 0.138672 0.5
vt 0.748047 0.5
vt 0.978516 0.5

# verts
v -0.3 0.3 0
v -0.3 0.3 -0.2
v -0.3 0.5 0
v -0.3 0.5 -0.2
v -0.3 0.6 0.2
v -0.3 0.6 -0.4
v -0.3 0.7 0.2
v -0.3 0.7 0.1
v -0.3 0.8 0.2
v -0.3 0.8 0.1
v -0.3 1 0.2
v -0.3 1 0
v -0.3 1 -0.2
v -0.3 1 -0.4
v -0.3 1.5 0
v -0.3 1.5 -0.2
v -0.2 0 0.1
v -0.2 0 -0.2
v -0.2 0.1 0.1
v -0.2 0.1 0
v -0.2 0.2 0.1
v -0.2 0.2 0
v -0.2 0.2 -0.2
v -0.2 0.2 -0.3
v -0.2 0.3 0.1
v -0.2 0.3 0
v -0.2 0.3 -0.2
v -0.2 0.3 -0.3
v -0.2 0.4 0.1
v -0.2 0.4 0
v -0.2 0.4 -0.2
v -0.2 0.4 -0.3
v -0.2 0.5 0.1
v -0.2 0.5 0
v -0.2 0.5 -0.1
v -0.2 0.5 -0.2
v -0.2 0.5 -0.3
v -0.2 0.6 0.1
v -0.2 0.6 0
v -0.2 0.6 -0.1
v -0.2 0.6 -0.2
v -0.2 0.6 -0.3
v -0.2 1 0.2
v -0.2 1 0
v -0.2 1 -0.2
v -0.2 1 -0.4
v -0.2 1.1 0.2
v -0.2 1.1 0
v -0.2 1.1 -0.2
v -0.2 1.1 -0.4
v -0.1 1.1 0.1
v -0.1 1.1 0
v -0.1 1.2 0.1
v -0.1 1.2 0
v 0 0.3 -0.3
v 0 0.3 -0.4
v 0 0.4 -0.3
v 0 0.4 -0.4
v 0 1.2 0
v 0 1.2 -0.1
v 0 1.3 0
v 0 1.3 -0.1
v 0.1 0 0.1
v 0.1 0 -0.2
v 0.1 0.1 0.1
v 0.1 0.1 0
v 0.1 0.2 0
v 0.1 0.2 -0.2
v 0.2 1.2 0
v 0.2 1.2 -0.1
v 0.2 1.2 -0.2
v 0.2 1.4 0
v 0.2 1.4 -0.1
v 0.2 1.5 0
v 0.2 1.5 -0.2
v -0.1 1.2 0
v -0.1 1.2 -0.1
v -0.1 1.2 -0.2
v -0.1 1.4 0
v -0.1 1.4 -0.1
v -0.1 1.5 0
v -0.1 1.5 -0.2
v 0 0 0.1
v 0 0 -0.2
v 0 0.1 0.1
v 0 0.1 0
v 0 0.2 0
v 0 0.2 -0.2
v 0.1 0.3 -0.3
v 0.1 0.3 -0.4
v 0.1 0.4 -0.3
v 0.1 0.4 -0.4
v 0.1 1.2 0
v 0.1 1.2 -0.1
v 0.1 1.3 0
v 0.1 1.3 -0.1
v 0.2 1.1 0.1
v 0.2 1.1 0
v 0.2 1.2 0.1
v 0.2 1.2 0
v 0.3 0 0.1
v 0.3 0 -0.2
v 0.3 0.1 0.1
v 0.3 0.1 0
v 0.3 0.2 0.1
v 0.3 0.2 0
v 0.3 0.2 -0.2
v 0.3 0.2 -0.3
v 0.3 0.3 0.1
v 0.3 0.3 0
v 0.3 0.3 -0.2
v 0.3 0.3 -0.3
v 0.3 0.4 0.1
v 0.3 0.4 0
v 0.3 0.4 -0.2
v 0.3 0.4 -0.3
v 0.3 0.5 0.1
v 0.3 0.5 0
v 0.3 0.5 -0.1
v 0.3 0.5 -0.2
v 0.3 0.5 -0.3
v 0.3 0.6 0.1
v 0.3 0.6 0
v 0.3 0.6 -0.1
v 0.3 0.6 -0.2
v 0.3 0.6 -0.3
v 0.3 1 0.2
v 0.3 1 0
v 0.3 1 -0.2
v 0.3 1 -0.4
v 0.3 1.1 0.2
v 0.3 1.1 0
v 0.3 1.1 -0.2
v 0.3 1.1 -0.4
v 0.4 0.3 0
v 0.4 0.3 -0.2
v 0.4 0.5 0
v 0.4 0.5 -0.2
v 0.4 0.6 0.2
v 0.4 0.6 -0.4
v 0.4 0.7 0.2
v 0.4 0.7 0.1
v 0.4 0.8 0.2
v 0.4 0.8 0.1
v 0.4 1 0.2
v 0.4 1 0
v 0.4 1 -0.2
v 0.4 1 -0.4
v 0.4 1.5 0
v 0.4 1.5 -0.2
v -0.3 0.6 0.2
v -0.3 0.7 0.2
v -0.3 0.8 0.2
v -0.3 1 0.2
v -0.2 0.7 0.2
v -0.2 0.8 0.2
v -0.2 0.9 0.2
v -0.2 1 0.2
v -0.2 1.1 0.2
v -0.1 0.6 0.2
v -0.1 0.8 0.2
v -0.1 0.9 0.2
v 0 0.7 0.2
v 0 0.8 0.2
v 0.1 0.7 0.2
v 0.1 0.8 0.2
v 0.2 0.6 0.2
v 0.2 0.8 0.2
v 0.2 0.9 0.2
v 0.3 0.7 0.2
v 0.3 0.8 0.2
v 0.3 0.9 0.2
v 0.3 1 0.2
v 0.3 1.1 0.2
v 0.4 0.6 0.2
v 0.4 0.7 0.2
v 0.4 0.8 0.2
v 0.4 1 0.2
v -0.2 0 0.1
v -0.2 0.1 0.1
v -0.2 0.2 0.1
v -0.2 0.3 0.1
v -0.2 0.4 0.1
v -0.2 0.5 0.1
v -0.2 0.6 0.1
v -0.1 0.3 0.1
v -0.1 0.4 0.1
v -0.1 0.5 0.1
v -0.1 0.6 0.1
v -0.1 1.1 0.1
v -0.1 1.2 0.1
v 0 0 0.1
v 0 0.1 0.1
v 0 0.3 0.1
v 0 0.4 0.1
v 0 0.5 0.1
v 0 0.6 0.1
v 0 1.1 0.1
v 0 1.2 0.1
v 0.1 0 0.1
v 0.1 0.1 0.1
v 0.1 0.3 0.1
v 0.1 0.4 0.1
v 0.1 0.5 0.1
v 0.1 0.6 0.1
v 0.1 1.1 0.1
v 0.1 1.2 0.1
v 0.2 0.3 0.1
v 0.2 0.4 0.1
v 0.2 0.5 0.1
v 0.2 0.6 0.1
v 0.2 1.1 0.1
v 0.2 1.2 0.1
v 0.3 0 0.1
v 0.3 0.1 0.1
v 0.3 0.2 0.1
v 0.3 0.3 0.1
v 0.3 0.4 0.1
v 0.3 0.5 0.1
v 0.3 0.6 0.1
v -0.3 0.3 0
v -0.3 0.5 0
v -0.3 1 0
v -0.3 1.5 0
v -0.2 0.1 0
v -0.2 0.2 0
v -0.2 0.3 0
v -0.2 0.4 0
v -0.2 0.5 0
v -0.2 1 0
v -0.2 1.1 0
v -0.2 1.4 0
v -0.1 1.1 0
v -0.1 1.2 0
v -0.1 1.4 0
v -0.1 1.5 0
v 0 0.1 0
v 0 0.2 0
v 0 1.2 0
v 0 1.3 0
v 0.1 0.1 0
v 0.1 0.2 0
v 0.1 1.2 0
v 0.1 1.3 0
v 0.2 1.1 0
v 0.2 1.2 0
v 0.2 1.4 0
v 0.2 1.5 0
v 0.3 0.1 0
v 0.3 0.2 0
v 0.3 0.3 0
v 0.3 0.4 0
v 0.3 0.5 0
v 0.3 1 0
v 0.3 1.1 0
v 0.3 1.4 0
v 0.4 0.3 0
v 0.4 0.5 0
v 0.4 1 0
v 0.4 1.5 0
v 0 1.2 -0.1
v 0 1.3 -0.1
v 0.1 1.2 -0.1
v 0.1 1.3 -0.1
v -0.3 0.3 -0.2
v -0.3 0.5 -0.2
v -0.3 1 -0.2
v -0.3 1.5 -0.2
v -0.2 0 -0.2
v -0.2 0.2 -0.2
v -0.2 0.3 -0.2
v -0.2 0.4 -0.2
v -0.2 0.5 -0.2
v -0.2 1 -0.2
v -0.2 1.1 -0.2
v -0.1 1.1 -0.2
v -0.1 1.2 -0.2
v -0.1 1.5 -0.2
v 0 0 -0.2
v 0 0.2 -0.2
v 0 1.1 -0.2
v 0 1.2 -0.2
v 0.1 0 -0.2
v 0.1 0.2 -0.2
v 0.1 1.1 -0.2
v 0.1 1.2 -0.2
v 0.2 1.1 -0.2
v 0.2 1.2 -0.2
v 0.2 1.5 -0.2
v 0.3 0 -0.2
v 0.3 0.2 -0.2
v 0.3 0.3 -0.2
v 0.3 0.4 -0.2
v 0.3 0.5 -0.2
v 0.3 1 -0.2
v 0.3 1.1 -0.2
v 0.4 0.3 -0.2
v 0.4 0.5 -0.2
v 0.4 1 -0.2
v 0.4 1.5 -0.2
v -0.2 0.2 -0.3
v -0.2 0.3 -0.3
v -0.2 0.4 -0.3
v -0.2 0.5 -0.3
v -0.2 0.6 -0.3
v -0.1 0.3 -0.3
v -0.1 0.4 -0.3
v -0.1 0.5 -0.3
v -0.1 0.6 -0.3
v 0 0.3 -0.3
v 0 0.4 -0.3
v 0 0.5 -0.3
v 0 0.6 -0.3
v 0.1 0.3 -0.3
v 0.1 0.4 -0.3
v 0.1 0.5 -0.3
v 0.1 0.6 -0.3
v 0.2 0.3 -0.3
v 0.2 0.4 -0.3
v 0.2 0.5 -0.3
v 0.2 0.6 -0.3
v 0.3 0.2 -0.3
v 0.3 0.3 -0.3
v 0.3 0.4 -0.3
v 0.3 0.5 -0.3
v 0.3 0.6 -0.3
v -0.3 0.6 -0.4
v -0.3 1 -0.4
v -0.2 1 -0.4
v -0.2 1.1 -0.4
v 0 0.3 -0.4
v 0 0.4 -0.4
v 0.1 0.3 -0.4
v 0.1 0.4 -0.4
v 0.3 1 -0.4
v 0.3 1.1 -0.4
v 0.4 0.6 -0.4
v 0.4 1 -0.4
v -0.2 0 0.1
v 0 0 0.1
v 0.1 0 0.1
v 0.3 0 0.1
v -0.2 0 -0.2
v 0 0 -0.2
v 0.1 0 -0.2
v 0.3 0 -0.2
v -0.2 0.2 0.1
v 0.3 0.2 0.1
v -0.2 0.2 0
v 0 0.2 0
v 0.1 0.2 0
v 0.3 0.2 0
v -0.2 0.2 -0.2
v 0 0.2 -0.2
v 0.1 0.2 -0.2
v 0.3 0.2 -0.2
v -0.2 0.2 -0.3
v 0.3 0.2 -0.3
v -0.3 0.3 0
v -0.2 0.3 0
v 0.3 0.3 0
v 0.4 0.3 0
v -0.3 0.3 -0.2
v -0.2 0.3 -0.2
v 0.3 0.3 -0.2
v 0.4 0.3 -0.2
v 0 0.3 -0.3
v 0.1 0.3 -0.3
v 0 0.3 -0.4
v 0.1 0.3 -0.4
v -0.3 0.6 0.2
v -0.1 0.6 0.2
v 0.2 0.6 0.2
v 0.4 0.6 0.2
v -0.2 0.6 0.1
v -0.1 0.6 0.1
v 0 0.6 0.1
v 0.1 0.6 0.1
v 0.2 0.6 0.1
v 0.3 0.6 0.1
v -0.2 0.6 0
v 0.3 0.6 0
v -0.2 0.6 -0.1
v 0.3 0.6 -0.1
v -0.2 0.6 -0.2
v 0.3 0.6 -0.2
v -0.2 0.6 -0.3
v -0.1 0.6 -0.3
v 0 0.6 -0.3
v 0.1 0.6 -0.3
v 0.2 0.6 -0.3
v 0.3 0.6 -0.3
v -0.3 0.6 -0.4
v 0.4 0.6 -0.4
v -0.2 0.1 0.1
v 0 0.1 0.1
v 0.1 0.1 0.1
v 0.3 0.1 0.1
v -0.2 0.1 0
v 0 0.1 0
v 0.1 0.1 0
v 0.3 0.1 0
v 0 0.4 -0.3
v 0.1 0.4 -0.3
v 0 0.4 -0.4
v 0.1 0.4 -0.4
v -0.3 0.5 0
v -0.2 0.5 0
v 0.3 0.5 0
v 0.4 0.5 0
v -0.2 0.5 -0.1
v 0.3 0.5 -0.1
v -0.3 0.5 -0.2
v -0.2 0.5 -0.2
v 0.3 0.5 -0.2
v 0.4 0.5 -0.2
v -0.3 1 0.2
v -0.2 1 0.2
v 0.3 1 0.2
v 0.4 1 0.2
v -0.3 1 0
v -0.2 1 0
v 0.3 1 0
v 0.4 1 0
v -0.3 1 -0.2
v -0.2 1 -0.2
v 0.3 1 -0.2
v 0.4 1 -0.2
v -0.3 1 -0.4
v -0.2 1 -0.4
v 0.3 1 -0.4
v 0.4 1 -0.4
v -0.2 1.1 0.2
v 0.3 1.1 0.2
v -0.1 1.1 0.1
v 0 1.1 0.1
v 0.1 1.1 0.1
v 0.2 1.1 0.1
v -0.2 1.1 0
v -0.1 1.1 0
v 0.2 1.1 0
v 0.3 1.1 0
v -0.2 1.1 -0.2
v -0.1 1.1 -0.2
v 0 1.1 -0.2
v 0.1 1.1 -0.2
v 0.2 1.1 -0.2
v 0.3 1.1 -0.2
v -0.2 1.1 -0.4
v 0.3 1.1 -0.4
v -0.1 1.2 0.1
v 0 1.2 0.1
v 0.1 1.2 0.1
v 0.2 1.2 0.1
v -0.1 1.2 0
v 0 1.2 0
v 0.1 1.2 0
v 0.2 1.2 0
v -0.1 1.2 -0.1
v 0 1.2 -0.1
v 0.1 1.2 -0.1
v 0.2 1.2 -0.1
v -0.1 1.2 -0.2
v 0 1.2 -0.2
v 0.1 1.2 -0.2
v 0.2 1.2 -0.2
v 0 1.3 0
v 0.1 1.3 0
v 0 1.3 -0.1
v 0.1 1.3 -0.1
v -0.3 1.5 0
v -0.1 1.5 0
v 0.2 1.5 0
v 0.4 1.5 0
v -0.3 1.5 -0.2
v -0.1 1.5 -0.2
v 0.2 1.5 -0.2
v 0.4 1.5 -0.2

# faces
f 3/2/1 2/2/1 1/2/1
f 4/2/1 2/2/1 3/2/1
f 7/2/1 6/2/1 5/2/1
f 8/2/1 6/2/1 7/2/1
f 9/3/1 8/3/1 7/3/1
f 10/2/1 6/2/1 8/2/1
f 10/3/1 8/3/1 9/3/1
f 11/2/1 10/2/1 9/2/1
f 12/2/1 6/2/1 10/2/1
f 12/2/1 10/2/1 11/2/1
f 13/2/1 6/2/1 12/2/1
f 14/2/1 6/2/1 13/2/1
f 15/2/1 13/2/1 12/2/1
f 16/2/1 13/2/1 15/2/1
f 19/2/1 18/2/1 17/2/1
f 20/2/1 18/2/1 19/2/1
f 22/2/1 18/2/1 20/2/1
f 23/2/1 18/2/1 22/2/1
f 25/2/1 22/2/1 21/2/1
f 25/2/1 24/2/1 23/2/1
f 25/2/1 23/2/1 22/2/1
f 26/2/1 24/2/1 25/2/1
f 27/2/1 24/2/1 26/2/1
f 28/2/1 24/2/1 27/2/1
f 29/6/1 26/6/1 25/6/1
f 30/6/1 26/6/1 29/6/1
f 31/5/1 28/5/1 27/5/1
f 32/5/1 28/5/1 31/5/1
f 33/5/1 30/5/1 29/5/1
f 34/5/1 30/5/1 33/5/1
f 36/6/1 32/6/1 31/6/1
f 37/6/1 32/6/1 36/6/1
f 38/6/1 34/6/1 33/6/1
f 39/7/1 35/7/1 34/7/1
f 39/6/1 34/6/1 38/6/1
f 40/6/1 36/6/1 35/6/1
f 40/7/1 35/7/1 39/7/1
f 41/7/1 37/7/1 36/7/1
f 41/6/1 36/6/1 40/6/1
f 42/7/1 37/7/1 41/7/1
f 47/2/1 44/2/1 43/2/1
f 48/2/1 44/2/1 47/2/1
f 49/2/1 46/2/1 45/2/1
f 50/2/1 46/2/1 49/2/1
f 53/6/1 52/6/1 51/6/1
f 54/6/1 52/6/1 53/6/1
f 57/2/1 56/2/1 55/2/1
f 58/2/1 56/2/1 57/2/1
f 61/7/1 60/7/1 59/7/1
f 62/7/1 60/7/1 61/7/1
f 65/2/1 64/2/1 63/2/1
f 66/2/1 64/2/1 65/2/1
f 67/2/1 64/2/1 66/2/1
f 68/2/1 64/2/1 67/2/1
f 72/3/1 70/3/1 69/3/1
f 73/2/1 71/2/1 70/2/1
f 73/3/1 70/3/1 72/3/1
f 74/2/1 73/2/1 72/2/1
f 75/2/1 71/2/1 73/2/1
f 75/2/1 73/2/1 74/2/1
f 76/3/2 77/3/2 79/3/2
f 77/2/2 78/2/2 80/2/2
f 79/3/2 77/3/2 80/3/2
f 79/2/2 80/2/2 81/2/2
f 80/2/2 78/2/2 82/2/2
f 81/2/2 80/2/2 82/2/2
f 83/2/2 84/2/2 85/2/2
f 85/2/2 84/2/2 86/2/2
f 86/2/2 84/2/2 87/2/2
f 87/2/2 84/2/2 88/2/2
f 89/2/2 90/2/2 91/2/2
f 91/2/2 90/2/2 92/2/2
f 93/7/2 94/7/2 95/7/2
f 95/7/2 94/7/2 96/7/2
f 97/6/2 98/6/2 99/6/2
f 99/6/2 98/6/2 100/6/2
f 101/2/2 102/2/2 103/2/2
f 103/2/2 102/2/2 104/2/2
f 104/2/2 102/2/2 106/2/2
f 106/2/2 102/2/2 107/2/2
f 105/2/2 106/2/2 109/2/2
f 107/2/2 108/2/2 109/2/2
f 106/2/2 107/2/2 109/2/2
f 109/2/2 108/2/2 110/2/2
f 110/2/2 108/2/2 111/2/2
f 111/2/2 108/2/2 112/2/2
f 109/6/2 110/6/2 113/6/2
f 113/6/2 110/6/2 114/6/2
f 111/5/2 112/5/2 115/5/2
f 115/5/2 112/5/2 116/5/2
f 113/5/2 114/5/2 117/5/2
f 117/5/2 114/5/2 118/5/2
f 115/6/2 116/6/2 120/6/2
f 120/6/2 116/6/2 121/6/2
f 117/6/2 118/6/2 122/6/2
f 118/7/2 119/7/2 123/7/2
f 122/6/2 118/6/2 123/6/2
f 119/6/2 120/6/2 124/6/2
f 123/7/2 119/7/2 124/7/2
f 120/7/2 121/7/2 125/7/2
f 124/6/2 120/6/2 125/6/2
f 125/7/2 121/7/2 126/7/2
f 127/2/2 128/2/2 131/2/2
f 131/2/2 128/2/2 132/2/2
f 129/2/2 130/2/2 133/2/2
f 133/2/2 130/2/2 134/2/2
f 135/2/2 136/2/2 137/2/2
f 137/2/2 136/2/2 138/2/2
f 139/2/2 140/2/2 141/2/2
f 141/2/2 140/2/2 142/2/2
f 141/3/2 142/3/2 143/3/2
f 142/2/2 140/2/2 144/2/2
f 143/3/2 142/3/2 144/3/2
f 143/2/2 144/2/2 145/2/2
f 144/2/2 140/2/2 146/2/2
f 145/2/2 144/2/2 146/2/2
f 146/2/2 140/2/2 147/2/2
f 147/2/2 140/2/2 148/2/2
f 146/2/2 147/2/2 149/2/2
f 149/2/2 147/2/2 150/2/2
f 155/2/3 152/2/3 151/2/3
f 155/3/3 153/3/3 152/3/3
f 156/2/3 154/2/3 153/2/3
f 156/3/3 153/3/3 155/3/3
f 157/2/3 154/2/3 156/2/3
f 158/2/3 154/2/3 157/2/3
f 160/2/3 155/2/3 151/2/3
f 160/2/3 156/2/3 155/2/3
f 161/8/3 157/8/3 156/8/3
f 161/2/3 156/2/3 160/2/3
f 162/2/3 159/2/3 158/2/3
f 162/8/3 157/8/3 161/8/3
f 162/2/3 158/2/3 157/2/3
f 163/1/3 161/1/3 160/1/3
f 164/2/3 162/2/3 161/2/3
f 164/1/3 161/1/3 163/1/3
f 165/1/3 163/1/3 160/1/3
f 165/4/3 164/4/3 163/4/3
f 166/2/3 162/2/3 164/2/3
f 166/4/3 164/4/3 165/4/3
f 167/1/3 165/1/3 160/1/3
f 167/1/3 166/1/3 165/1/3
f 168/2/3 162/2/3 166/2/3
f 168/1/3 166/1/3 167/1/3
f 169/2/3 159/2/3 162/2/3
f 169/2/3 162/2/3 168/2/3
f 170/2/3 168/2/3 167/2/3
f 171/8/3 169/8/3 168/8/3
f 171/2/3 168/2/3 170/2/3
f 172/2/3 159/2/3 169/2/3
f 172/8/3 169/8/3 171/8/3
f 173/2/3 159/2/3 172/2/3
f 174/2/3 159/2/3 173/2/3
f 175/2/3 170/2/3 167/2/3
f 176/3/3 171/3/3 170/3/3
f 176/2/3 170/2/3 175/2/3
f 177/2/3 172/2/3 171/2/3
f 177/3/3 171/3/3 176/3/3
f 177/2/3 173/2/3 172/2/3
f 178/2/3 173/2/3 177/2/3
f 186/2/3 182/2/3 181/2/3
f 186/6/3 183/6/3 182/6/3
f 187/5/3 184/5/3 183/5/3
f 187/6/3 183/6/3 186/6/3
f 188/6/3 185/6/3 184/6/3
f 188/5/3 184/5/3 187/5/3
f 189/6/3 185/6/3 188/6/3
f 192/2/3 180/2/3 179/2/3
f 193/2/3 180/2/3 192/2/3
f 194/5/3 187/5/3 186/5/3
f 194/2/3 186/2/3 181/2/3
f 195/6/3 188/6/3 187/6/3
f 195/5/3 187/5/3 194/5/3
f 196/7/3 189/7/3 188/7/3
f 196/6/3 188/6/3 195/6/3
f 197/7/3 189/7/3 196/7/3
f 198/6/3 191/6/3 190/6/3
f 199/6/3 191/6/3 198/6/3
f 202/2/3 194/2/3 181/2/3
f 202/6/3 195/6/3 194/6/3
f 203/5/3 196/5/3 195/5/3
f 203/6/3 195/6/3 202/6/3
f 204/6/3 197/6/3 196/6/3
f 204/5/3 196/5/3 203/5/3
f 205/6/3 197/6/3 204/6/3
f 206/5/3 199/5/3 198/5/3
f 207/5/3 199/5/3 206/5/3
f 208/5/3 203/5/3 202/5/3
f 208/2/3 202/2/3 181/2/3
f 209/6/3 204/6/3 203/6/3
f 209/5/3 203/5/3 208/5/3
f 210/7/3 205/7/3 204/7/3
f 210/6/3 204/6/3 209/6/3
f 211/7/3 205/7/3 210/7/3
f 212/6/3 207/6/3 206/6/3
f 213/6/3 207/6/3 212/6/3
f 214/2/3 201/2/3 200/2/3
f 215/2/3 201/2/3 214/2/3
f 216/2/3 208/2/3 181/2/3
f 217/6/3 209/6/3 208/6/3
f 217/2/3 208/2/3 216/2/3
f 218/5/3 210/5/3 209/5/3
f 218/6/3 209/6/3 217/6/3
f 219/6/3 211/6/3 210/6/3
f 219/5/3 210/5/3 218/5/3
f 220/6/3 211/6/3 219/6/3
f 227/2/3 222/2/3 221/2/3
f 228/2/3 222/2/3 227/2/3
f 229/2/3 222/2/3 228/2/3
f 230/2/3 224/2/3 223/2/3
f 231/2/3 224/2/3 230/2/3
f 232/2/3 224/2/3 231/2/3
f 233/3/3 232/3/3 231/3/3
f 234/3/3 232/3/3 233/3/3
f 235/2/3 224/2/3 232/2/3
f 235/3/3 232/3/3 234/3/3
f 236/2/3 224/2/3 235/2/3
f 237/2/3 226/2/3 225/2/3
f 238/2/3 226/2/3 237/2/3
f 243/7/3 240/7/3 239/7/3
f 244/7/3 240/7/3 243/7/3
f 249/2/3 242/2/3 241/2/3
f 250/2/3 242/2/3 249/2/3
f 255/3/3 246/3/3 245/3/3
f 255/3/3 247/3/3 246/3/3
f 256/2/3 248/2/3 247/2/3
f 256/3/3 247/3/3 255/3/3
f 257/2/3 253/2/3 252/2/3
f 257/2/3 252/2/3 251/2/3
f 258/2/3 253/2/3 257/2/3
f 259/2/3 255/2/3 254/2/3
f 259/2/3 256/2/3 255/2/3
f 260/2/3 248/2/3 256/2/3
f 260/2/3 256/2/3 259/2/3
f 261/7/4 262/7/4 263/7/4
f 263/7/4 262/7/4 264/7/4
f 265/2/4 266/2/4 271/2/4
f 271/2/4 266/2/4 272/2/4
f 272/2/4 266/2/4 273/2/4
f 267/2/4 268/2/4 274/2/4
f 274/2/4 268/2/4 275/2/4
f 275/2/4 268/2/4 276/2/4
f 276/2/4 268/2/4 277/2/4
f 277/2/4 268/2/4 278/2/4
f 269/2/4 270/2/4 279/2/4
f 279/2/4 270/2/4 280/2/4
f 276/6/4 277/6/4 281/6/4
f 281/6/4 277/6/4 282/6/4
f 281/5/4 282/5/4 285/5/4
f 285/5/4 282/5/4 286/5/4
f 285/6/4 286/6/4 287/6/4
f 287/6/4 286/6/4 288/6/4
f 283/2/4 284/2/4 290/2/4
f 290/2/4 284/2/4 291/2/4
f 287/2/4 288/2/4 296/2/4
f 288/2/4 289/2/4 296/2/4
f 293/2/4 294/2/4 297/2/4
f 292/2/4 293/2/4 297/2/4
f 297/2/4 294/2/4 298/2/4
f 295/2/4 296/2/4 299/2/4
f 296/2/4 289/2/4 300/2/4
f 299/2/4 296/2/4 300/2/4
f 301/2/4 302/2/4 306/2/4
f 302/5/4 303/5/4 306/5/4
f 303/6/4 304/6/4 307/6/4
f 306/5/4 303/5/4 307/5/4
f 304/7/4 305/7/4 308/7/4
f 307/6/4 304/6/4 308/6/4
f 308/7/4 305/7/4 309/7/4
f 306/6/4 307/6/4 310/6/4
f 301/2/4 306/2/4 310/2/4
f 307/5/4 308/5/4 311/5/4
f 310/6/4 307/6/4 311/6/4
f 308/6/4 309/6/4 312/6/4
f 311/5/4 308/5/4 312/5/4
f 312/6/4 309/6/4 313/6/4
f 301/2/4 310/2/4 314/2/4
f 311/6/4 312/6/4 315/6/4
f 312/7/4 313/7/4 316/7/4
f 315/6/4 312/6/4 316/6/4
f 316/7/4 313/7/4 317/7/4
f 314/6/4 315/6/4 318/6/4
f 301/2/4 314/2/4 318/2/4
f 315/5/4 316/5/4 319/5/4
f 318/6/4 315/6/4 319/6/4
f 316/6/4 317/6/4 320/6/4
f 319/5/4 316/5/4 320/5/4
f 320/6/4 317/6/4 321/6/4
f 301/2/4 318/2/4 322/2/4
f 318/5/4 319/5/4 323/5/4
f 322/2/4 318/2/4 323/2/4
f 319/6/4 320/6/4 324/6/4
f 323/5/4 319/5/4 324/5/4
f 320/7/4 321/7/4 325/7/4
f 324/6/4 320/6/4 325/6/4
f 325/7/4 321/7/4 326/7/4
f 327/2/4 328/2/4 329/2/4
f 331/2/4 332/2/4 333/2/4
f 333/2/4 332/2/4 334/2/4
f 327/2/4 329/2/4 335/2/4
f 329/2/4 330/2/4 335/2/4
f 335/2/4 330/2/4 336/2/4
f 327/2/4 335/2/4 337/2/4
f 337/2/4 335/2/4 338/2/4
f 343/2/5 340/2/5 339/2/5
f 344/2/5 340/2/5 343/2/5
f 345/2/5 342/2/5 341/2/5
f 346/2/5 342/2/5 345/2/5
f 349/2/5 348/2/5 347/2/5
f 350/2/5 348/2/5 349/2/5
f 351/2/5 348/2/5 350/2/5
f 352/2/5 348/2/5 351/2/5
f 354/2/5 351/2/5 350/2/5
f 355/2/5 351/2/5 354/2/5
f 357/2/5 354/2/5 353/2/5
f 357/2/5 356/2/5 355/2/5
f 357/2/5 355/2/5 354/2/5
f 358/2/5 356/2/5 357/2/5
f 363/2/5 360/2/5 359/2/5
f 364/2/5 360/2/5 363/2/5
f 365/2/5 362/2/5 361/2/5
f 366/2/5 362/2/5 365/2/5
f 369/2/5 368/2/5 367/2/5
f 370/2/5 368/2/5 369/2/5
f 375/2/5 372/2/5 371/2/5
f 376/1/5 373/1/5 372/1/5
f 376/2/5 372/2/5 375/2/5
f 377/1/5 373/1/5 376/1/5
f 378/1/5 373/1/5 377/1/5
f 379/2/5 374/2/5 373/2/5
f 379/1/5 373/1/5 378/1/5
f 380/2/5 374/2/5 379/2/5
f 381/2/5 375/2/5 371/2/5
f 382/2/5 374/2/5 380/2/5
f 383/2/5 381/2/5 371/2/5
f 384/2/5 374/2/5 382/2/5
f 385/2/5 383/2/5 371/2/5
f 386/2/5 374/2/5 384/2/5
f 387/2/5 385/2/5 371/2/5
f 392/2/5 374/2/5 386/2/5
f 393/2/5 391/2/5 390/2/5
f 393/2/5 392/2/5 391/2/5
f 393/2/5 387/2/5 371/2/5
f 393/2/5 388/2/5 387/2/5
f 393/2/5 390/2/5 389/2/5
f 393/2/5 389/2/5 388/2/5
f 394/2/5 374/2/5 392/2/5
f 394/2/5 392/2/5 393/2/5
f 395/2/6 396/2/6 399/2/6
f 399/2/6 396/2/6 400/2/6
f 397/2/6 398/2/6 401/2/6
f 401/2/6 398/2/6 402/2/6
f 403/2/6 404/2/6 405/2/6
f 405/2/6 404/2/6 406/2/6
f 407/2/6 408/2/6 411/2/6
f 409/2/6 410/2/6 412/2/6
f 407/2/6 411/2/6 413/2/6
f 413/2/6 411/2/6 414/2/6
f 412/2/6 410/2/6 415/2/6
f 415/2/6 410/2/6 416/2/6
f 417/2/6 418/2/6 421/2/6
f 421/2/6 418/2/6 422/2/6
f 419/2/6 420/2/6 423/2/6
f 423/2/6 420/2/6 424/2/6
f 425/2/6 426/2/6 429/2/6
f 429/2/6 426/2/6 430/2/6
f 427/2/6 428/2/6 431/2/6
f 431/2/6 428/2/6 432/2/6
f 433/2/6 434/2/6 435/2/6
f 435/2/6 434/2/6 436/2/6
f 436/2/6 434/2/6 437/2/6
f 437/2/6 434/2/6 438/2/6
f 433/2/6 435/2/6 439/2/6
f 439/2/6 435/2/6 440/2/6
f 438/2/6 434/2/6 441/2/6
f 441/2/6 434/2/6 442/2/6
f 443/2/6 444/2/6 449/2/6
f 447/2/6 448/2/6 449/2/6
f 446/2/6 447/2/6 449/2/6
f 445/2/6 446/2/6 449/2/6
f 444/2/6 445/2/6 449/2/6
f 449/2/6 448/2/6 450/2/6
f 451/6/6 452/6/6 455/6/6
f 452/5/6 453/5/6 456/5/6
f 455/6/6 452/6/6 456/6/6
f 453/6/6 454/6/6 457/6/6
f 456/5/6 453/5/6 457/5/6
f 457/6/6 454/6/6 458/6/6
f 455/5/6 456/5/6 459/5/6
f 459/5/6 456/5/6 460/5/6
f 457/5/6 458/5/6 461/5/6
f 461/5/6 458/5/6 462/5/6
f 459/6/6 460/6/6 463/6/6
f 460/5/6 461/5/6 464/5/6
f 463/6/6 460/6/6 464/6/6
f 461/6/6 462/6/6 465/6/6
f 464/5/6 461/5/6 465/5/6
f 465/6/6 462/6/6 466/6/6
f 467/7/6 468/7/6 469/7/6
f 469/7/6 468/7/6 470/7/6
f 471/2/6 472/2/6 475/2/6
f 475/2/6 472/2/6 476/2/6
f 473/2/6 474/2/6 477/2/6
f 477/2/6 474/2/6 478/2/6
